<svg width="18" height="19" viewBox="0 0 18 19" fill="none" xmlns="http://www.w3.org/2000/svg">
<path d="M15.375 7.83203C15.375 8.03914 15.5429 8.20703 15.75 8.20703C15.9571 8.20703 16.125 8.03914 16.125 7.83203H15.375ZM10.5 2.20703C10.2929 2.20703 10.125 2.37492 10.125 2.58203C10.125 2.78914 10.2929 2.95703 10.5 2.95703V2.20703ZM15.6356 3.15534L15.9697 2.98509V2.98509L15.6356 3.15534ZM15.1767 2.69647L15.3469 2.36235V2.36235L15.1767 2.69647ZM14.9652 3.8972C15.1116 3.75075 15.1116 3.51331 14.9652 3.36687C14.8187 3.22042 14.5813 3.22042 14.4348 3.36687L14.9652 3.8972ZM8.73484 9.06687C8.58839 9.21331 8.58839 9.45075 8.73484 9.5972C8.88128 9.74364 9.11872 9.74364 9.26516 9.5972L8.73484 9.06687ZM3.64605 15.8034L3.81629 15.4692H3.81629L3.64605 15.8034ZM2.52868 14.686L2.19455 14.8562H2.19455L2.52868 14.686ZM13.2213 14.686L12.8872 14.5157L13.2213 14.686ZM12.104 15.8034L11.9337 15.4692L12.104 15.8034ZM3.64605 5.11071L3.4758 4.77658L3.64605 5.11071ZM2.52868 6.22808L2.19455 6.05783H2.19455L2.52868 6.22808ZM7.875 5.20703C8.08211 5.20703 8.25 5.03914 8.25 4.83203C8.25 4.62492 8.08211 4.45703 7.875 4.45703V5.20703ZM13.875 10.457C13.875 10.2499 13.7071 10.082 13.5 10.082C13.2929 10.082 13.125 10.2499 13.125 10.457H13.875ZM16.125 7.83203V4.26203H15.375V7.83203H16.125ZM14.07 2.20703H10.5V2.95703H14.07V2.20703ZM16.125 4.26203C16.125 3.97419 16.1253 3.73576 16.1094 3.54186C16.0932 3.34358 16.0583 3.15907 15.9697 2.98509L15.3014 3.32559C15.3272 3.37622 15.3495 3.45103 15.3619 3.60293C15.3747 3.75921 15.375 3.96182 15.375 4.26203H16.125ZM14.07 2.95703C14.3702 2.95703 14.5728 2.95732 14.7291 2.97009C14.881 2.9825 14.9558 3.00481 15.0064 3.0306L15.3469 2.36235C15.173 2.2737 14.9885 2.23878 14.7902 2.22258C14.5963 2.20674 14.3578 2.20703 14.07 2.20703V2.95703ZM15.9697 2.98509C15.8331 2.71697 15.6151 2.49897 15.3469 2.36235L15.0064 3.0306C15.1335 3.09532 15.2367 3.19858 15.3014 3.32559L15.9697 2.98509ZM14.4348 3.36687L8.73484 9.06687L9.26516 9.5972L14.9652 3.8972L14.4348 3.36687ZM9.40909 15.707H6.34091V16.457H9.40909V15.707ZM2.625 11.9911V8.92294H1.875V11.9911H2.625ZM6.34091 15.707C5.61875 15.707 5.09968 15.7067 4.69213 15.6734C4.28897 15.6405 4.02808 15.5771 3.81629 15.4692L3.4758 16.1375C3.81094 16.3082 4.18151 16.3842 4.63106 16.421C5.07623 16.4573 5.63112 16.457 6.34091 16.457V15.707ZM1.875 11.9911C1.875 12.7009 1.87471 13.2558 1.91108 13.701C1.94781 14.1505 2.02379 14.5211 2.19455 14.8562L2.8628 14.5157C2.75489 14.3039 2.69153 14.0431 2.65859 13.6399C2.62529 13.2324 2.625 12.7133 2.625 11.9911H1.875ZM3.81629 15.4692C3.40576 15.26 3.07198 14.9263 2.8628 14.5157L2.19455 14.8562C2.47563 15.4079 2.92414 15.8564 3.4758 16.1375L3.81629 15.4692ZM13.125 11.9911C13.125 12.7133 13.1247 13.2324 13.0914 13.6399C13.0585 14.0431 12.9951 14.3039 12.8872 14.5157L13.5555 14.8562C13.7262 14.5211 13.8022 14.1505 13.8389 13.701C13.8753 13.2558 13.875 12.7009 13.875 11.9911H13.125ZM9.40909 16.457C10.1189 16.457 10.6738 16.4573 11.1189 16.421C11.5685 16.3842 11.9391 16.3082 12.2742 16.1375L11.9337 15.4692C11.7219 15.5771 11.461 15.6405 11.0579 15.6734C10.6503 15.7067 10.1313 15.707 9.40909 15.707V16.457ZM12.8872 14.5157C12.678 14.9263 12.3442 15.26 11.9337 15.4692L12.2742 16.1375C12.8259 15.8564 13.2744 15.4079 13.5555 14.8562L12.8872 14.5157ZM6.34091 4.45703C5.63112 4.45703 5.07623 4.45674 4.63106 4.49311C4.18151 4.52984 3.81094 4.60582 3.4758 4.77658L3.81629 5.44484C4.02808 5.33692 4.28897 5.27356 4.69213 5.24062C5.09967 5.20732 5.61874 5.20703 6.34091 5.20703V4.45703ZM2.625 8.92294C2.625 8.20078 2.62529 7.68171 2.65859 7.27416C2.69153 6.871 2.75489 6.61012 2.8628 6.39832L2.19455 6.05783C2.02379 6.39297 1.94781 6.76355 1.91108 7.21309C1.87471 7.65826 1.875 8.21315 1.875 8.92294H2.625ZM3.4758 4.77658C2.92414 5.05766 2.47563 5.50617 2.19455 6.05783L2.8628 6.39832C3.07198 5.98779 3.40576 5.65401 3.81629 5.44484L3.4758 4.77658ZM6.34091 5.20703H7.875V4.45703H6.34091V5.20703ZM13.125 10.457V11.9911H13.875V10.457H13.125Z" fill="#8331D3"/>
</svg>
