<svg width="656" height="124" viewBox="0 0 656 124" fill="none" xmlns="http://www.w3.org/2000/svg">
<g clip-path="url(#clip0_15414_2910)">
<path fill-rule="evenodd" clip-rule="evenodd" d="M1094.55 -382.231C1094.56 -382.235 1094.56 -382.237 1093.78 -382.705C1093.01 -383.172 1093.01 -383.171 1093 -383.167V-383.153L1092.96 -383.094C1092.93 -383.041 1092.88 -382.961 1092.81 -382.856C1092.69 -382.644 1092.49 -382.329 1092.23 -381.911C1091.72 -381.076 1090.94 -379.836 1089.91 -378.217C1087.85 -374.98 1084.76 -370.23 1080.68 -364.182C1072.5 -352.086 1060.31 -334.802 1044.27 -314.058C1012.19 -272.571 964.702 -217.254 903.066 -161.938C779.786 -51.3 599.993 59.2699 373.785 59.2699V61.0809C600.608 61.0809 780.815 -49.7893 904.276 -160.591C966.01 -215.995 1013.58 -271.398 1045.71 -312.951C1061.77 -333.727 1073.98 -351.043 1082.18 -363.167C1086.27 -369.23 1089.37 -373.994 1091.44 -377.244C1092.47 -378.869 1093.25 -380.116 1093.77 -380.958C1094.03 -381.378 1094.23 -381.697 1094.36 -381.911C1094.43 -382.019 1094.47 -382.1 1094.51 -382.154L1094.54 -382.216L1094.55 -382.231ZM1094.47 -248.977C1094.47 -248.98 1094.47 -248.981 1093.78 -249.569C1093.09 -250.156 1093.09 -250.155 1093.09 -250.153L1093.08 -250.143L1093.05 -250.101L1092.98 -250.028L1092.9 -249.934C1092.85 -249.87 1092.78 -249.793 1092.7 -249.702L1092.58 -249.557C1092.5 -249.469 1092.41 -249.372 1092.32 -249.266C1091.8 -248.677 1091.03 -247.8 1090 -246.655C1087.94 -244.367 1084.86 -241.007 1080.77 -236.729C1072.6 -228.174 1060.42 -215.947 1044.38 -201.273C1012.3 -171.925 964.818 -132.787 903.186 -93.6499C779.918 -15.3743 600.086 62.8919 373.785 62.8919V64.7039C600.517 64.7039 780.683 -13.7132 904.157 -92.1211C965.893 -131.325 1013.46 -170.53 1045.6 -199.937C1061.67 -214.641 1073.88 -226.896 1082.08 -235.478C1086.18 -239.769 1089.28 -243.142 1091.35 -245.443C1092.38 -246.595 1093.16 -247.478 1093.68 -248.074C1093.95 -248.372 1094.14 -248.598 1094.27 -248.75C1094.34 -248.826 1094.39 -248.883 1094.42 -248.922L1094.46 -248.966L1094.47 -248.977ZM1093.78 -157.189C1094.37 -156.496 1094.36 -156.493 1094.36 -156.493L1094.35 -156.484L1094.31 -156.453L1094.22 -156.371L1094.17 -156.33C1094.03 -156.22 1093.84 -156.058 1093.58 -155.844C1093.05 -155.417 1092.27 -154.784 1091.24 -153.958C1089.17 -152.307 1086.07 -149.889 1081.97 -146.814C1073.77 -140.661 1061.56 -131.876 1045.49 -121.337C1013.35 -100.257 965.778 -72.1571 904.046 -44.06C780.581 12.1359 600.453 68.3269 373.785 68.3269V66.5149C600.149 66.5149 780.021 10.4006 903.295 -45.7084C964.933 -73.7629 1012.42 -101.816 1044.49 -122.851C1060.53 -133.369 1072.71 -142.131 1080.88 -148.262C1084.97 -151.327 1088.05 -153.735 1090.11 -155.375C1091.14 -156.195 1091.91 -156.823 1092.43 -157.245C1092.54 -157.336 1092.64 -157.417 1092.73 -157.489C1092.84 -157.584 1092.94 -157.662 1093.01 -157.723C1093.07 -157.776 1093.12 -157.817 1093.15 -157.843L1093.19 -157.873L1093.2 -157.88C1093.2 -157.88 1093.2 -157.881 1093.22 -157.86C1093.22 -157.85 1093.24 -157.836 1093.26 -157.814C1093.29 -157.774 1093.34 -157.711 1093.43 -157.608L1093.78 -157.189ZM1094.17 -55.8393V-55.8411C1094.17 -55.8411 1094.17 -55.8466 1094.16 -55.8547C1094.16 -55.8701 1094.14 -55.9009 1094.11 -55.9643C1094.06 -56.073 1093.96 -56.2768 1093.78 -56.6581C1093.61 -57.0276 1093.51 -57.2295 1093.46 -57.34C1093.43 -57.3917 1093.42 -57.4234 1093.41 -57.4433C1093.4 -57.4623 1093.39 -57.4695 1093.39 -57.4723V-57.4741L1093.38 -57.4695L1093.34 -57.4524L1093.2 -57.3844C1093.07 -57.3237 1092.88 -57.2332 1092.62 -57.1127C1092.1 -56.8727 1091.33 -56.5149 1090.3 -56.0485C1088.24 -55.1166 1085.16 -53.7472 1081.07 -52.0038C1072.9 -48.5169 1060.71 -43.5338 1044.67 -37.5536C1012.59 -25.5913 965.096 -9.63856 903.444 6.31604C780.139 38.2242 600.216 70.1379 373.785 70.1379V71.9489C600.386 71.9489 780.463 40.012 903.898 8.06943C965.615 -7.90147 1013.17 -23.8741 1045.31 -35.8563C1061.37 -41.8474 1073.58 -46.8405 1081.78 -50.3373C1085.88 -52.0862 1088.98 -53.461 1091.05 -54.3984C1092.08 -54.8675 1092.86 -55.228 1093.38 -55.4707C1093.65 -55.5921 1093.84 -55.6845 1093.97 -55.746L1094.12 -55.8167L1094.16 -55.8348L1094.17 -55.8393ZM1093.78 23.9478C1093.91 24.5954 1093.94 24.772 1093.95 24.82C1093.95 24.8381 1093.95 24.8381 1093.95 24.8381L1093.94 24.8399L1093.9 24.8472L1093.75 24.8753C1093.62 24.8997 1093.43 24.936 1093.17 24.984L1092.92 25.0292L1092.62 25.0845C1092.46 25.1144 1092.28 25.1479 1092.08 25.1832C1091.72 25.2493 1091.3 25.3245 1090.83 25.4087C1088.77 25.781 1085.67 26.3262 1081.58 27.0199C1073.39 28.4083 1061.18 30.39 1045.12 32.7683C1013 37.525 965.462 43.8669 903.763 50.2079C780.365 62.8909 600.335 75.5719 373.785 75.5719V73.7609C600.268 73.7609 780.235 61.0829 903.578 48.4059C965.249 42.0679 1012.76 35.7299 1044.86 30.9769C1060.9 28.6003 1073.1 26.6205 1081.28 25.2339C1085.36 24.5411 1088.45 23.9967 1090.51 23.6263C1091.54 23.4407 1092.32 23.2985 1092.84 23.2025C1093.1 23.1554 1093.29 23.1192 1093.42 23.0947L1093.57 23.0675L1093.6 23.0603L1093.61 23.0585C1093.61 23.0585 1093.61 23.0585 1093.62 23.0757C1093.62 23.0929 1093.63 23.1255 1093.64 23.1898L1093.67 23.3329C1093.69 23.4642 1093.73 23.6598 1093.78 23.9478ZM1093.77 72.8549C1093.77 72.8549 1093.78 72.8549 1093.78 73.7609C1093.79 74.6659 1093.79 74.6659 1093.79 74.6659H1093.78H1093.76L1093.74 74.6669H1093.71H1093.68H1093.64L1093.59 74.6679H1093.54L1093.48 74.6689H1093.42L1093.35 74.6699H1093.27L1093.19 74.6709L1093.1 74.6719L1093.01 74.6729H1092.91L1092.8 74.6739H1092.69L1092.57 74.6749L1092.45 74.6759L1092.32 74.6769L1092.18 74.6789L1092.04 74.6799L1091.89 74.6809L1091.73 74.6819L1091.57 74.6839H1091.41L1091.23 74.6849L1091.06 74.6869L1090.87 74.6879L1090.68 74.6899L1090.48 74.6919L1090.28 74.6929L1090.07 74.6939L1089.86 74.6959L1089.64 74.6979L1089.41 74.6999L1089.18 74.7019L1088.94 74.7029L1088.69 74.7049L1088.44 74.7069L1088.19 74.7089L1087.93 74.7109L1087.66 74.7119L1087.38 74.7139L1087.1 74.7169L1086.82 74.7189L1086.52 74.7219L1086.23 74.7229L1085.92 74.7259L1085.61 74.7279L1085.3 74.7309L1084.98 74.7329L1084.65 74.7349L1084.31 74.7379L1083.97 74.7409L1083.63 74.7429L1083.28 74.7459L1082.92 74.7489L1082.56 74.7509L1082.19 74.7539L1081.81 74.7569L1081.43 74.7599L1081.05 74.7619L1080.65 74.7659L1080.26 74.7689L1079.85 74.7709L1079.44 74.7749L1079.03 74.7779L1078.6 74.7809L1078.18 74.7839L1077.74 74.7879L1077.3 74.7909L1076.86 74.7939L1076.41 74.7979L1075.95 74.8009L1075.49 74.8049L1075.02 74.8079L1074.54 74.8109L1074.06 74.8149L1073.58 74.8189L1073.09 74.8229L1072.59 74.8269L1072.09 74.8299L1071.58 74.8339L1071.06 74.8379L1070.54 74.8419L1070.01 74.8459L1069.48 74.8499L1068.94 74.8539L1068.4 74.8579L1067.85 74.8619L1067.29 74.8659L1066.73 74.8709L1066.17 74.8749L1065.59 74.8789L1065.01 74.8839L1064.43 74.8879L1063.84 74.8929L1063.24 74.8969L1062.64 74.9019L1062.04 74.9059L1061.42 74.9109L1060.8 74.9149L1060.18 74.9199L1059.55 74.9239L1058.91 74.9299L1058.27 74.9339L1057.62 74.9399L1056.97 74.9439L1056.31 74.9489L1055.65 74.9539L1054.98 74.9599L1054.3 74.9639L1053.62 74.9699L1052.93 74.9749L1052.24 74.9799L1051.54 74.9849L1050.84 74.9909L1050.13 74.9959L1049.41 75.0009L1048.69 75.0069L1047.96 75.0119L1047.23 75.0179L1046.49 75.0229L1045.75 75.0289L1045 75.0349L1044.24 75.0399L1043.48 75.0459L1042.71 75.0519L1041.94 75.0579L1041.16 75.0639L1040.38 75.0689L1039.59 75.0759L1038.8 75.0809L1038 75.0869L1037.19 75.0939L1036.38 75.0999L1035.56 75.1059L1034.74 75.1119L1033.91 75.1179L1033.08 75.1249L1032.24 75.1309L1031.39 75.1369L1030.54 75.1439L1029.68 75.1499L1028.82 75.1569L1027.96 75.1639L1027.08 75.1699L1026.2 75.1759L1025.32 75.1829L1024.43 75.1899L1023.53 75.1969L1022.63 75.2029L1021.73 75.2109L1020.81 75.2169L1019.9 75.2239L1018.97 75.2309L1018.05 75.2379L1017.11 75.2449L1016.17 75.2519L1015.23 75.2599L1014.28 75.2669L1013.32 75.2739L1012.36 75.2809L1011.39 75.2889L1010.42 75.2959L1009.44 75.3029L1008.46 75.3099L1007.47 75.3169L1006.47 75.3259L1005.47 75.3329L1004.47 75.3399L1003.45 75.3479L1002.44 75.3559L1001.42 75.3639L1000.39 75.3709L999.356 75.3789L998.317 75.3869L997.273 75.3939L996.223 75.4029L995.169 75.4109L994.108 75.4189L993.042 75.4269L991.971 75.4349L990.894 75.4429L989.812 75.4519L988.725 75.4599L987.632 75.4679L986.533 75.4759L985.429 75.4839L984.32 75.4919L983.206 75.5009L982.086 75.5089L980.96 75.5179L979.829 75.5269L978.693 75.5349L977.551 75.5439L976.404 75.5519L975.252 75.5609L974.094 75.5699L972.93 75.5779L971.762 75.5869L970.588 75.5959L969.409 75.6049L968.225 75.6149L967.035 75.6229L965.839 75.6319L964.638 75.6409L963.432 75.6499L962.221 75.6599L961.004 75.6689L959.782 75.6779L958.554 75.6869L957.321 75.6959L956.083 75.7059L954.84 75.7149L953.591 75.7239L952.337 75.7339L951.078 75.7429L949.813 75.7529L948.543 75.7629L947.268 75.7719L945.987 75.7819L944.701 75.7919L943.41 75.8009L942.113 75.8109L940.811 75.8209L939.504 75.8309L938.192 75.8409L936.874 75.8509L935.551 75.8609L934.223 75.8709L932.889 75.8809L931.551 75.8909L930.207 75.9009L928.857 75.9119L927.503 75.9219L926.143 75.9319L924.778 75.9419L923.408 75.9519L922.033 75.9619L920.652 75.9729L919.267 75.9829L917.875 75.9939L916.479 76.0049L915.078 76.0149L913.67 76.0259L912.259 76.0369L910.841 76.0469L909.419 76.0579L907.992 76.0679L906.559 76.0789L905.121 76.0899L903.677 76.1009L902.229 76.1119L900.776 76.1239L899.317 76.1339L897.853 76.1449L896.384 76.1559L894.91 76.1669L893.431 76.1789L891.946 76.1899L890.457 76.2009L888.961 76.2119L887.462 76.2239L885.956 76.2349L884.446 76.2469L882.931 76.2579L881.41 76.2689L879.885 76.2809L878.353 76.2919L876.818 76.3039L875.277 76.3159L873.731 76.3269L872.18 76.3389L870.623 76.3509L869.061 76.3629L867.495 76.3739L865.923 76.3859L864.347 76.3979L862.764 76.4099L861.178 76.4219L859.586 76.4339L857.989 76.4459L856.387 76.4579L854.779 76.4699L853.167 76.4819L851.55 76.4949L849.927 76.5069L848.299 76.5189L846.667 76.5309L845.029 76.5439L843.387 76.5559L841.739 76.5689L840.086 76.5809L838.428 76.5939L836.766 76.6059L835.097 76.6189L833.425 76.6319L831.747 76.6439L830.064 76.6569L828.376 76.6699L826.683 76.6819L824.985 76.6949L823.282 76.7079L821.574 76.7209L819.862 76.7339L818.144 76.7469L816.42 76.7599L814.692 76.7729L812.96 76.7859L811.222 76.7989L809.479 76.8119L807.731 76.8249L805.978 76.8389L804.221 76.8519L802.458 76.8649L800.69 76.8789L798.917 76.8919L797.14 76.9049L795.357 76.9189L793.569 76.9319L791.777 76.9459L789.98 76.9599L788.178 76.9729L786.37 76.9869L784.558 76.9999L782.741 77.0139L780.919 77.0269L779.093 77.0419L777.261 77.0549L775.425 77.0689L773.583 77.0839L771.736 77.0969L769.885 77.1109L768.028 77.1249L766.167 77.1389L764.301 77.1529L762.43 77.1669L760.555 77.1809L758.674 77.1959L756.788 77.2089L754.898 77.2239L753.002 77.2379L751.102 77.2529L749.198 77.2669L747.288 77.2819L745.373 77.2959L743.453 77.3109L741.529 77.3249L739.6 77.3399L737.666 77.3539L735.727 77.3689L733.783 77.3829L731.834 77.3979L729.881 77.4129L727.923 77.4279L725.96 77.4419L723.992 77.4579L722.02 77.4719L720.043 77.4869L718.06 77.5019L716.073 77.5169L714.082 77.5319L712.085 77.5469L710.083 77.5629L708.077 77.5769L706.067 77.5929L704.051 77.6079L702.03 77.6229L700.005 77.6389L697.976 77.6539L695.94 77.6699L693.901 77.6849L691.857 77.6999L689.807 77.7159L687.754 77.7309L685.696 77.7469L683.633 77.7619L681.564 77.7769L679.492 77.7939L677.414 77.8089L675.332 77.8239L673.246 77.8409L671.154 77.8559L669.058 77.8719L666.957 77.8879L664.851 77.9039L662.741 77.9199L660.625 77.9359L658.506 77.9519L656.381 77.9679L654.252 77.9839L652.118 77.9999L649.98 78.0159L647.837 78.0319L645.689 78.0479L643.536 78.0639L641.379 78.0809L639.217 78.0969L637.051 78.1129L634.88 78.1299L632.705 78.1459L630.524 78.1629L628.339 78.1789L626.149 78.1959L623.955 78.2119L621.755 78.2289L619.552 78.2459L617.344 78.2629L615.131 78.2789L612.913 78.2949L610.692 78.3129L608.465 78.3289L606.233 78.3459L603.998 78.3629L601.758 78.3799L599.512 78.3969L597.263 78.4139L595.009 78.4309L592.75 78.4479L590.486 78.4649L588.218 78.4819L585.946 78.4989L583.668 78.5159L581.387 78.5339L579.101 78.5509L576.809 78.5679L574.515 78.5849L572.214 78.6029L569.909 78.6209L567.601 78.6379L565.287 78.6549L562.969 78.6729L560.646 78.6899L558.32 78.7069L555.987 78.7259L553.651 78.7429L551.311 78.7609L548.965 78.7779L546.616 78.7959L544.261 78.8139L541.903 78.8319L539.539 78.8499L537.172 78.8679L534.799 78.8849L532.422 78.9029L530.041 78.9209L527.655 78.9389L525.265 78.9569L522.87 78.9759L520.471 78.9939L518.068 79.0119L515.659 79.0299L513.247 79.0479L510.83 79.0659L508.409 79.0839L505.983 79.1029L503.552 79.1209L501.117 79.1389L498.678 79.1579L496.234 79.1769L493.786 79.1949L491.334 79.2139L488.876 79.2319L486.416 79.2509L483.95 79.2689L481.479 79.2879L479.005 79.3059L476.526 79.3249L474.042 79.3439L471.554 79.3619L469.062 79.3809L466.566 79.3999L464.064 79.4189L461.559 79.4379L459.05 79.4569L456.535 79.4759L454.017 79.4949L451.494 79.5139L448.966 79.5329L446.435 79.5519L443.899 79.5709L441.358 79.5909L438.814 79.6099L436.264 79.6289L433.711 79.6479L431.154 79.6669L428.591 79.6869L426.025 79.7059L423.454 79.7249L420.879 79.7449L418.299 79.7639L415.716 79.7839L413.128 79.8029L410.535 79.8229L407.939 79.8429L405.338 79.8619L402.733 79.8819L400.123 79.9019L397.509 79.9209L394.891 79.9409L392.268 79.9609L389.642 79.9809L387.011 80.0009L384.375 80.0209L381.736 80.0409L379.092 80.0609L376.444 80.0799L373.792 80.0999L373.778 78.2889L376.43 78.2689L379.078 78.2489L381.723 78.2289L384.362 78.2089L386.997 78.1889L389.628 78.1689L392.255 78.1499L394.877 78.1299L397.496 78.1109L400.109 78.0909L402.719 78.0709L405.324 78.0509L407.925 78.0319L410.522 78.0119L413.115 77.9919L415.702 77.9729L418.286 77.9529L420.865 77.9339L423.441 77.9139L426.011 77.8949L428.578 77.8759L431.14 77.8559L433.697 77.8369L436.251 77.8179L438.8 77.7979L441.345 77.7789L443.885 77.7599L446.421 77.7409L448.952 77.7219L451.48 77.7029L454.003 77.6839L456.522 77.6649L459.036 77.6459L461.546 77.6269L464.051 77.6079L466.552 77.5889L469.049 77.5699L471.54 77.5509L474.028 77.5329L476.512 77.5139L478.991 77.4949L481.465 77.4769L483.936 77.4579L486.401 77.4399L488.863 77.4199L491.32 77.4019L493.772 77.3829L496.22 77.3649L498.665 77.3459L501.104 77.3279L503.538 77.3099L505.969 77.2919L508.395 77.2729L510.816 77.2549L513.233 77.2369L515.646 77.2189L518.054 77.1999L520.458 77.1819L522.857 77.1639L525.251 77.1459L527.641 77.1279L530.028 77.1099L532.409 77.0919L534.785 77.0739L537.158 77.0559L539.525 77.0379L541.889 77.0199L544.247 77.0029L546.602 76.9849L548.951 76.9669L551.297 76.9499L553.637 76.9309L555.974 76.9139L558.305 76.8959L560.633 76.8789L562.956 76.8619L565.273 76.8439L567.587 76.8259L569.896 76.8089L572.201 76.7919L574.5 76.7739L576.796 76.7569L579.086 76.7389L581.373 76.7219L583.654 76.7049L585.932 76.6879L588.204 76.6709L590.472 76.6529L592.735 76.6369L594.995 76.6199L597.249 76.6029L599.499 76.5849L601.744 76.5679L603.984 76.5519L606.22 76.5349L608.451 76.5179L610.678 76.5009L612.9 76.4839L615.118 76.4679L617.33 76.4509L619.538 76.4339L621.742 76.4179L623.941 76.4009L626.135 76.3839L628.325 76.3679L630.51 76.3519L632.69 76.3349L634.867 76.3179L637.037 76.3019L639.204 76.2859L641.366 76.2689L643.523 76.2529L645.676 76.2369L647.823 76.2199L649.967 76.2049L652.105 76.1889L654.239 76.1719L656.368 76.1559L658.492 76.1409L660.612 76.1239L662.727 76.1079L664.838 76.0929L666.943 76.0759L669.044 76.0609L671.14 76.0449L673.232 76.0289L675.319 76.0129L677.401 75.9979L679.478 75.9819L681.551 75.9659L683.619 75.9509L685.682 75.9349L687.741 75.9199L689.794 75.9039L691.843 75.8889L693.887 75.8739L695.927 75.8579L697.962 75.8429L699.992 75.8269L702.017 75.8119L704.037 75.7969L706.053 75.7809L708.064 75.7659L710.07 75.7509L712.071 75.7359L714.068 75.7209L716.06 75.7059L718.047 75.6909L720.028 75.6759L722.006 75.6609L723.979 75.6459L725.947 75.6309L727.909 75.6159L729.867 75.6019L731.821 75.5859L733.77 75.5719L735.713 75.5569L737.652 75.5429L739.586 75.5289L741.515 75.5139L743.44 75.4999L745.36 75.4849L747.274 75.4709L749.184 75.4559L751.089 75.4419L752.989 75.4269L754.884 75.4129L756.774 75.3989L758.66 75.3849L760.541 75.3699L762.417 75.3559L764.288 75.3419L766.153 75.3269L768.015 75.3139L769.871 75.2989L771.722 75.2859L773.569 75.2719L775.41 75.2579L777.247 75.2439L779.079 75.2309L780.906 75.2159L782.728 75.2019L784.545 75.1889L786.357 75.1749L788.164 75.1619L789.967 75.1479L791.764 75.1349L793.556 75.1209L795.344 75.1069L797.126 75.0939L798.904 75.0799L800.676 75.0679L802.444 75.0539L804.206 75.0399L805.964 75.0279L807.718 75.0139L809.466 74.9999L811.208 74.9879L812.946 74.9739L814.678 74.9619L816.407 74.9489L818.13 74.9349L819.848 74.9229L821.561 74.9099L823.269 74.8959L824.971 74.8839L826.669 74.8709L828.362 74.8579L830.05 74.8459L831.733 74.8329L833.411 74.8199L835.084 74.8079L836.752 74.7949L838.415 74.7819L840.072 74.7699L841.725 74.7579L843.372 74.7449L845.015 74.7319L846.653 74.7209L848.286 74.7079L849.913 74.6949L851.536 74.6839L853.154 74.6709L854.766 74.6589L856.372 74.6469L857.975 74.6349L859.572 74.6229L861.164 74.6109L862.751 74.5979L864.333 74.5869L865.91 74.5749L867.481 74.5629L869.048 74.5509L870.609 74.5389L872.166 74.5279L873.717 74.5159L875.263 74.5039L876.804 74.4919L878.34 74.4809L879.871 74.4699L881.396 74.4579L882.917 74.4459L884.432 74.4349L885.943 74.4239L887.448 74.4129L888.948 74.4009L890.443 74.3899L891.933 74.3779L893.417 74.3669L894.896 74.3569L896.371 74.3449L897.84 74.3339L899.303 74.3229L900.762 74.3119L902.216 74.3009L903.664 74.2899L905.107 74.2789L906.545 74.2679L907.977 74.2569L909.406 74.2469L910.828 74.2359L912.245 74.2249L913.657 74.2139L915.063 74.2039L916.465 74.1939L917.862 74.1829L919.253 74.1729L920.639 74.1619L922.02 74.1509L923.395 74.1409L924.765 74.1309L926.13 74.1199L927.49 74.1099L928.844 74.0999L930.193 74.0889L931.537 74.0789L932.876 74.0689L934.209 74.0589L935.538 74.0499L936.861 74.0399L938.178 74.0299L939.491 74.0199L940.798 74.0099L942.099 73.9999L943.396 73.9899L944.687 73.9809L945.973 73.9709L947.254 73.9609L948.529 73.9519L949.799 73.9419L951.064 73.9319L952.323 73.9229L953.577 73.9139L954.826 73.9039L956.07 73.8949L957.308 73.8849L958.54 73.8759L959.768 73.8669L960.99 73.8579L962.206 73.8479L963.418 73.8379L964.625 73.8289L965.825 73.8199L967.021 73.8109L968.211 73.8029L969.396 73.7939L970.575 73.7849L971.748 73.7759L972.917 73.7669L974.081 73.7589L975.238 73.7499L976.391 73.7409L977.537 73.7329L978.679 73.7229L979.815 73.7149L980.946 73.7059L982.072 73.6979L983.191 73.6899L984.306 73.6809L985.416 73.6729L986.52 73.6649L987.618 73.6559L988.711 73.6479L989.798 73.6399L990.88 73.6319L991.957 73.6239L993.029 73.6159L994.095 73.6079L995.155 73.5989L996.209 73.5909L997.259 73.5829L998.303 73.5759L999.342 73.5679L1000.37 73.5599L1001.4 73.5519L1002.42 73.5439L1003.44 73.5369L1004.45 73.5299L1005.46 73.5219L1006.46 73.5139L1007.45 73.5069L1008.44 73.4989L1009.43 73.4919L1010.4 73.4839L1011.38 73.4769L1012.34 73.4699L1013.31 73.4629L1014.26 73.4549L1015.21 73.4479L1016.16 73.4409L1017.1 73.4339L1018.03 73.4259L1018.96 73.4199L1019.88 73.4129L1020.8 73.4059L1021.71 73.3989L1022.62 73.3919L1023.52 73.3859L1024.42 73.3779L1025.31 73.3719L1026.19 73.3649L1027.07 73.3579L1027.94 73.3519L1028.81 73.3459L1029.67 73.3389L1030.53 73.3319L1031.38 73.3259L1032.22 73.3199L1033.06 73.3129L1033.9 73.3069L1034.73 73.3009L1035.55 73.2939L1036.37 73.2889L1037.18 73.2819L1037.98 73.2759L1038.78 73.2699L1039.58 73.2639L1040.37 73.2579L1041.15 73.2529L1041.93 73.2459L1042.7 73.2409L1043.47 73.2339L1044.23 73.2289L1044.98 73.2239L1045.73 73.2179L1046.48 73.2119L1047.22 73.2059L1047.95 73.2009L1048.68 73.1949L1049.4 73.1899L1050.11 73.1849L1050.82 73.1789L1051.53 73.1739L1052.23 73.1679L1052.92 73.1639L1053.61 73.1579L1054.29 73.1529L1054.96 73.1479L1055.63 73.1429L1056.3 73.1379L1056.96 73.1329L1057.61 73.1279L1058.26 73.1229L1058.9 73.1179L1059.54 73.1139L1060.17 73.1089L1060.79 73.1039L1061.41 73.0989L1062.02 73.0949L1062.63 73.0899L1063.23 73.0859L1063.83 73.0809L1064.42 73.0769L1065 73.0719L1065.58 73.0679L1066.15 73.0629L1066.72 73.0599L1067.28 73.0549L1067.84 73.0509L1068.39 73.0469L1068.93 73.0419L1069.47 73.0389L1070 73.0339L1070.53 73.0309L1071.05 73.0269L1071.56 73.0219L1072.07 73.0189L1072.58 73.0149L1073.07 73.0119L1073.56 73.0079L1074.05 73.0039L1074.53 73.0009L1075.01 72.9969L1075.47 72.9939L1075.94 72.9899L1076.39 72.9859L1076.84 72.9829L1077.29 72.9799L1077.73 72.9759L1078.16 72.9729L1078.59 72.9699L1079.01 72.9659L1079.43 72.9639L1079.84 72.9599L1080.24 72.9569L1080.64 72.9549L1081.03 72.9509L1081.42 72.9479L1081.8 72.9459L1082.18 72.9429L1082.54 72.9399L1082.91 72.9369L1083.26 72.9349L1083.62 72.9319L1083.96 72.9289L1084.3 72.9259L1084.63 72.9239L1084.96 72.9219L1085.28 72.9189L1085.6 72.9169L1085.91 72.9149L1086.21 72.9119L1086.51 72.9099L1086.8 72.9069L1087.09 72.9059L1087.37 72.9039L1087.64 72.9009L1087.91 72.8989L1088.17 72.8969L1088.43 72.8959L1088.68 72.8939L1088.93 72.8919L1089.16 72.8899L1089.4 72.8879L1089.62 72.8869L1089.84 72.8849L1090.06 72.8829L1090.27 72.8809L1090.47 72.8799L1090.67 72.8779H1090.86L1091.04 72.8759L1091.22 72.8739L1091.39 72.8729L1091.56 72.8719L1091.72 72.8699L1091.88 72.8689H1092.02L1092.17 72.8679L1092.3 72.8659L1092.43 72.8649L1092.56 72.8639L1092.68 72.8629L1092.79 72.8619H1092.9L1093 72.8609L1093.09 72.8599L1093.18 72.8589H1093.26H1093.34L1093.41 72.8579H1093.47L1093.53 72.8569H1093.58L1093.63 72.8559H1093.67H1093.7H1093.73L1093.75 72.8549H1093.76H1093.77ZM1093.78 316.484C1094.37 315.791 1094.36 315.789 1094.36 315.789L1094.35 315.78L1094.31 315.749V315.741L1094.23 315.674L1094.17 315.625L1094.05 315.532L1093.93 315.428C1093.83 315.346 1093.71 315.25 1093.58 315.139C1093.05 314.712 1092.27 314.079 1091.24 313.254C1089.17 311.602 1086.07 309.185 1081.97 306.109C1073.77 299.956 1061.56 291.171 1045.49 280.632C1013.35 259.552 965.778 231.453 904.046 203.355C780.581 147.159 600.453 90.9689 373.785 90.9689V92.7799C600.149 92.7799 780.021 148.894 903.295 205.003C964.933 233.059 1012.42 261.111 1044.49 282.146C1060.53 292.664 1072.71 301.426 1080.88 307.558C1084.97 310.623 1088.05 313.031 1090.11 314.67C1091.14 315.491 1091.91 316.118 1092.43 316.54C1092.69 316.752 1092.88 316.912 1093.01 317.019C1093.06 317.061 1093.1 317.095 1093.13 317.121L1093.15 317.138L1093.19 317.168L1093.2 317.175C1093.2 317.175 1093.2 317.176 1093.24 317.125C1093.3 317.055 1093.44 316.886 1093.78 316.484ZM1094.17 214.229C1094.17 214.229 1094.17 214.231 1093.78 215.047C1093.39 215.864 1093.39 215.863 1093.39 215.863L1093.38 215.859L1093.34 215.843L1093.2 215.774C1093.07 215.713 1092.88 215.623 1092.62 215.502C1092.41 215.403 1092.15 215.286 1091.85 215.148C1091.67 215.064 1091.47 214.972 1091.26 214.874C1090.97 214.742 1090.65 214.596 1090.3 214.439C1088.24 213.506 1085.16 212.137 1081.07 210.393C1072.9 206.907 1060.71 201.924 1044.67 195.943C1012.59 183.981 965.096 168.028 903.444 152.073C780.139 120.165 600.216 88.2519 373.785 88.2519V86.4399C600.386 86.4399 780.463 118.377 903.898 150.32C965.615 166.291 1013.17 182.263 1045.31 194.246C1061.37 200.237 1073.58 205.23 1081.78 208.728C1085.88 210.476 1088.98 211.85 1091.05 212.789C1092.08 213.257 1092.86 213.617 1093.38 213.86C1093.53 213.929 1093.66 213.988 1093.76 214.038C1093.85 214.076 1093.92 214.109 1093.97 214.136L1094.12 214.206L1094.16 214.224L1094.17 214.229ZM1093.78 133.536C1093.95 132.646 1093.95 132.646 1093.95 132.646L1093.94 132.644L1093.9 132.636L1093.75 132.609C1093.62 132.585 1093.43 132.548 1093.17 132.5C1092.65 132.404 1091.87 132.261 1090.83 132.075C1088.77 131.703 1085.67 131.157 1081.58 130.464C1073.39 129.076 1061.18 127.094 1045.12 124.715C1013 119.959 965.462 113.617 903.763 107.275C780.365 94.5929 600.335 81.9119 373.785 81.9119V83.7229C600.268 83.7229 780.235 96.4009 903.578 109.078C965.249 115.416 1012.76 121.754 1044.86 126.507C1060.9 128.883 1073.1 130.864 1081.28 132.25C1085.36 132.943 1088.45 133.487 1090.51 133.857C1091.14 133.97 1091.67 134.066 1092.1 134.145C1092.39 134.198 1092.63 134.243 1092.84 134.281C1093.1 134.329 1093.29 134.365 1093.42 134.389L1093.57 134.417L1093.6 134.423L1093.61 134.425C1093.61 134.425 1093.61 134.426 1093.78 133.536Z" fill="url(#paint0_linear_15414_2910)"/>
<path fill-rule="evenodd" clip-rule="evenodd" d="M-439 -382.231C-439.002 -382.235 -439.003 -382.237 -438.228 -382.705C-437.452 -383.172 -437.451 -383.171 -437.449 -383.167L-437.44 -383.153L-437.405 -383.094C-437.372 -383.041 -437.324 -382.961 -437.26 -382.856C-437.13 -382.644 -436.937 -382.329 -436.678 -381.911C-436.161 -381.076 -435.386 -379.836 -434.355 -378.217C-432.293 -374.98 -429.209 -370.23 -425.121 -364.182C-416.946 -352.086 -404.76 -334.802 -388.719 -314.058C-356.638 -272.571 -309.147 -217.254 -247.511 -161.938C-124.232 -51.3 55.5613 59.2699 281.77 59.2699V61.0809C54.9464 61.0809 -125.26 -49.7893 -248.721 -160.591C-310.456 -215.995 -358.02 -271.398 -390.152 -312.951C-406.218 -333.727 -418.428 -351.043 -426.622 -363.167C-430.719 -369.23 -433.813 -373.994 -435.883 -377.244C-436.918 -378.869 -437.697 -380.116 -438.218 -380.958C-438.478 -381.378 -438.674 -381.697 -438.805 -381.911C-438.871 -382.019 -438.92 -382.1 -438.953 -382.154L-438.99 -382.216L-439 -382.231ZM-438.914 -248.977C-438.916 -248.98 -438.917 -248.981 -438.228 -249.569C-437.538 -250.156 -437.537 -250.155 -437.536 -250.153L-437.527 -250.143L-437.491 -250.101L-437.428 -250.028L-437.347 -249.934C-437.292 -249.87 -437.225 -249.793 -437.146 -249.702L-437.021 -249.557C-436.944 -249.469 -436.86 -249.372 -436.767 -249.266C-436.25 -248.677 -435.476 -247.8 -434.446 -246.655C-432.386 -244.367 -429.303 -241.007 -425.217 -236.729C-417.045 -228.174 -404.861 -215.947 -388.824 -201.273C-356.75 -171.925 -309.264 -132.787 -247.631 -93.6499C-124.364 -15.3743 55.4689 62.8919 281.77 62.8919V64.7039C55.0379 64.7039 -125.128 -13.7132 -248.602 -92.1211C-310.339 -131.325 -357.909 -170.53 -390.047 -199.937C-406.117 -214.641 -418.329 -226.896 -426.527 -235.478C-430.625 -239.769 -433.72 -243.142 -435.792 -245.443C-436.828 -246.595 -437.608 -247.478 -438.129 -248.074C-438.39 -248.372 -438.587 -248.598 -438.718 -248.75C-438.784 -248.826 -438.833 -248.883 -438.866 -248.922L-438.904 -248.966L-438.914 -248.977ZM-438.228 -157.189C-438.811 -156.496 -438.809 -156.494 -438.807 -156.493L-438.797 -156.484L-438.76 -156.453L-438.662 -156.371L-438.611 -156.33C-438.479 -156.22 -438.283 -156.058 -438.022 -155.844C-437.5 -155.417 -436.719 -154.784 -435.683 -153.958C-433.611 -152.307 -430.515 -149.889 -426.415 -146.814C-418.216 -140.661 -406.003 -131.876 -389.932 -121.337C-357.792 -100.257 -310.224 -72.1571 -248.491 -44.06C-125.026 12.1359 55.1012 68.3269 281.77 68.3269V66.5149C55.4055 66.5149 -124.466 10.4006 -247.741 -45.7084C-309.379 -73.7629 -356.866 -101.816 -388.939 -122.851C-404.975 -133.369 -417.158 -142.131 -425.328 -148.262C-429.413 -151.327 -432.495 -153.735 -434.555 -155.375C-435.584 -156.195 -436.358 -156.823 -436.874 -157.245C-436.985 -157.336 -437.084 -157.417 -437.171 -157.489C-437.286 -157.584 -437.381 -157.662 -437.454 -157.723C-437.518 -157.776 -437.566 -157.817 -437.598 -157.843L-437.633 -157.873L-437.642 -157.88C-437.642 -157.88 -437.643 -157.881 -437.661 -157.86C-437.67 -157.85 -437.682 -157.836 -437.7 -157.814C-437.734 -157.774 -437.788 -157.711 -437.874 -157.608L-438.228 -157.189ZM-438.615 -55.8393V-55.8411C-438.614 -55.8429 -438.613 -55.8466 -438.61 -55.8547C-438.603 -55.8701 -438.588 -55.9009 -438.558 -55.9643C-438.507 -56.073 -438.41 -56.2768 -438.228 -56.6581C-438.051 -57.0276 -437.954 -57.2295 -437.901 -57.34C-437.876 -57.3917 -437.86 -57.4234 -437.851 -57.4433C-437.841 -57.4623 -437.838 -57.4695 -437.836 -57.4723C-437.835 -57.4741 -437.834 -57.4741 -437.834 -57.4741L-437.826 -57.4695L-437.79 -57.4524L-437.646 -57.3844C-437.517 -57.3237 -437.324 -57.2332 -437.066 -57.1127C-436.55 -56.8727 -435.775 -56.5149 -434.745 -56.0485C-432.685 -55.1166 -429.602 -53.7472 -425.516 -52.0038C-417.344 -48.5169 -405.159 -43.5338 -389.119 -37.5536C-357.04 -25.5913 -309.542 -9.63856 -247.889 6.31604C-124.584 38.2242 55.3385 70.1379 281.77 70.1379V71.9489C55.1683 71.9489 -124.908 40.012 -248.343 8.06943C-310.061 -7.90147 -357.618 -23.8741 -389.752 -35.8563C-405.819 -41.8474 -418.03 -46.8405 -426.227 -50.3373C-430.326 -52.0862 -433.421 -53.461 -435.492 -54.3984C-436.528 -54.8675 -437.308 -55.228 -437.83 -55.4707C-438.091 -55.5921 -438.287 -55.6845 -438.419 -55.746L-438.567 -55.8167L-438.605 -55.8348L-438.615 -55.8393ZM-438.228 23.9478C-438.351 24.5954 -438.384 24.772 -438.391 24.82C-438.394 24.8381 -438.393 24.8381 -438.393 24.8381L-438.384 24.8399L-438.347 24.8472L-438.199 24.8753C-438.068 24.8997 -437.873 24.936 -437.613 24.984L-437.369 25.0292L-437.069 25.0845C-436.903 25.1144 -436.722 25.1479 -436.525 25.1832C-436.162 25.2493 -435.747 25.3245 -435.279 25.4087C-433.21 25.781 -430.118 26.3262 -426.023 27.0199C-417.832 28.4083 -405.628 30.39 -389.568 32.7683C-357.449 37.525 -309.908 43.8669 -248.209 50.2079C-124.81 62.8909 55.2199 75.5719 281.77 75.5719V73.7609C55.2869 73.7609 -124.681 61.0829 -248.023 48.4059C-309.695 42.0679 -357.209 35.7299 -389.303 30.9769C-405.35 28.6003 -417.542 26.6205 -425.72 25.2339C-429.81 24.5411 -432.896 23.9967 -434.959 23.6263C-435.99 23.4407 -436.766 23.2985 -437.283 23.2025C-437.542 23.1554 -437.736 23.1192 -437.866 23.0947L-438.011 23.0675L-438.047 23.0603L-438.056 23.0585C-438.056 23.0585 -438.057 23.0585 -438.061 23.0757C-438.064 23.0929 -438.071 23.1255 -438.083 23.1898L-438.111 23.3329C-438.136 23.4642 -438.173 23.6598 -438.228 23.9478ZM-438.218 72.8549C-438.22 72.8549 -438.221 72.8549 -438.228 73.7609C-438.234 74.6659 -438.233 74.6659 -438.231 74.6659H-438.222H-438.207L-438.186 74.6669H-438.158H-438.125H-438.085L-438.039 74.6679H-437.987L-437.93 74.6689H-437.866L-437.796 74.6699H-437.719L-437.637 74.6709L-437.549 74.6719L-437.455 74.6729H-437.354L-437.248 74.6739H-437.136L-437.017 74.6749L-436.893 74.6759L-436.762 74.6769L-436.626 74.6789L-436.483 74.6799L-436.334 74.6809L-436.18 74.6819L-436.019 74.6839H-435.852L-435.68 74.6849L-435.501 74.6869L-435.316 74.6879L-435.126 74.6899L-434.929 74.6919L-434.726 74.6929L-434.518 74.6939L-434.303 74.6959L-434.083 74.6979L-433.856 74.6999L-433.623 74.7019L-433.385 74.7029L-433.14 74.7049L-432.89 74.7069L-432.633 74.7089L-432.371 74.7109L-432.103 74.7119L-431.828 74.7139L-431.548 74.7169L-431.262 74.7189L-430.97 74.7219L-430.672 74.7229L-430.368 74.7259L-430.058 74.7279L-429.742 74.7309L-429.421 74.7329L-429.093 74.7349L-428.759 74.7379L-428.42 74.7409L-428.074 74.7429L-427.723 74.7459L-427.366 74.7489L-427.003 74.7509L-426.634 74.7539L-426.259 74.7569L-425.879 74.7599L-425.492 74.7619L-425.099 74.7659L-424.701 74.7689L-424.297 74.7709L-423.887 74.7749L-423.471 74.7779L-423.049 74.7809L-422.621 74.7839L-422.188 74.7879L-421.749 74.7909L-421.303 74.7939L-420.852 74.7979L-420.396 74.8009L-419.933 74.8049L-419.464 74.8079L-418.99 74.8109L-418.51 74.8149L-418.024 74.8189L-417.532 74.8229L-417.034 74.8269L-416.531 74.8299L-416.022 74.8339L-415.507 74.8379L-414.986 74.8419L-414.459 74.8459L-413.927 74.8499L-413.389 74.8539L-412.845 74.8579L-412.295 74.8619L-411.74 74.8659L-411.178 74.8709L-410.611 74.8749L-410.038 74.8789L-409.46 74.8839L-408.876 74.8879L-408.286 74.8929L-407.69 74.8969L-407.088 74.9019L-406.481 74.9059L-405.868 74.9109L-405.249 74.9149L-404.624 74.9199L-403.994 74.9239L-403.358 74.9299L-402.717 74.9339L-402.069 74.9399L-401.416 74.9439L-400.757 74.9489L-400.093 74.9539L-399.422 74.9599L-398.747 74.9639L-398.065 74.9699L-397.378 74.9749L-396.685 74.9799L-395.986 74.9849L-395.282 74.9909L-394.572 74.9959L-393.856 75.0009L-393.135 75.0069L-392.407 75.0119L-391.675 75.0179L-390.936 75.0229L-390.192 75.0289L-389.443 75.0349L-388.687 75.0399L-387.926 75.0459L-387.16 75.0519L-386.387 75.0579L-385.61 75.0639L-384.826 75.0689L-384.037 75.0759L-383.242 75.0809L-382.442 75.0869L-381.636 75.0939L-380.824 75.0999L-380.007 75.1059L-379.184 75.1119L-378.356 75.1179L-377.522 75.1249L-376.682 75.1309L-375.837 75.1369L-374.986 75.1439L-374.13 75.1499L-373.268 75.1569L-372.4 75.1639L-371.527 75.1699L-370.649 75.1759L-369.765 75.1829L-368.875 75.1899L-367.979 75.1969L-367.078 75.2029L-366.172 75.2109L-365.26 75.2169L-364.343 75.2239L-363.42 75.2309L-362.491 75.2379L-361.557 75.2449L-360.617 75.2519L-359.672 75.2599L-358.721 75.2669L-357.765 75.2739L-356.803 75.2809L-355.836 75.2889L-354.863 75.2959L-353.885 75.3029L-352.901 75.3099L-351.912 75.3169L-350.917 75.3259L-349.917 75.3329L-348.911 75.3399L-347.9 75.3479L-346.884 75.3559L-345.861 75.3639L-344.833 75.3709L-343.801 75.3789L-342.762 75.3869L-341.718 75.3939L-340.668 75.4029L-339.614 75.4109L-338.554 75.4189L-337.488 75.4269L-336.416 75.4349L-335.339 75.4429L-334.257 75.4519L-333.17 75.4599L-332.077 75.4679L-330.979 75.4759L-329.875 75.4839L-328.765 75.4919L-327.651 75.5009L-326.531 75.5089L-325.405 75.5179L-324.274 75.5269L-323.138 75.5349L-321.996 75.5439L-320.85 75.5519L-319.697 75.5609L-318.539 75.5699L-317.376 75.5779L-316.207 75.5869L-315.034 75.5959L-313.854 75.6049L-312.67 75.6149L-311.48 75.6229L-310.284 75.6319L-309.083 75.6409L-307.877 75.6499L-306.666 75.6599L-305.449 75.6689L-304.227 75.6779L-302.999 75.6869L-301.767 75.6959L-300.529 75.7059L-299.285 75.7149L-298.036 75.7239L-296.782 75.7339L-295.523 75.7429L-294.258 75.7529L-292.988 75.7629L-291.713 75.7719L-290.432 75.7819L-289.146 75.7919L-287.855 75.8009L-286.558 75.8109L-285.257 75.8209L-283.95 75.8309L-282.637 75.8409L-281.32 75.8509L-279.996 75.8609L-278.669 75.8709L-277.335 75.8809L-275.996 75.8909L-274.652 75.9009L-273.303 75.9119L-271.949 75.9219L-270.588 75.9319L-269.224 75.9419L-267.853 75.9519L-266.479 75.9619L-265.097 75.9729L-263.712 75.9829L-262.321 75.9939L-260.924 76.0049L-259.523 76.0149L-258.116 76.0259L-256.704 76.0369L-255.286 76.0469L-253.865 76.0579L-252.437 76.0679L-251.005 76.0789L-249.566 76.0899L-248.123 76.1009L-246.675 76.1119L-245.221 76.1239L-243.762 76.1339L-242.298 76.1449L-240.829 76.1559L-239.355 76.1669L-237.876 76.1789L-236.392 76.1899L-234.902 76.2009L-233.407 76.2119L-231.907 76.2239L-230.402 76.2349L-228.891 76.2469L-227.376 76.2579L-225.855 76.2689L-224.33 76.2809L-222.799 76.2919L-221.264 76.3039L-219.722 76.3159L-218.176 76.3269L-216.625 76.3389L-215.068 76.3509L-213.507 76.3629L-211.94 76.3739L-210.369 76.3859L-208.792 76.3979L-207.21 76.4099L-205.623 76.4219L-204.031 76.4339L-202.434 76.4459L-200.832 76.4579L-199.225 76.4699L-197.612 76.4819L-195.995 76.4949L-194.372 76.5069L-192.745 76.5189L-191.113 76.5309L-189.474 76.5439L-187.832 76.5559L-186.184 76.5689L-184.531 76.5809L-182.874 76.5939L-181.211 76.6059L-179.543 76.6189L-177.87 76.6319L-176.192 76.6439L-174.509 76.6569L-172.821 76.6699L-171.128 76.6819L-169.43 76.6949L-167.728 76.7079L-166.019 76.7209L-164.307 76.7339L-162.589 76.7469L-160.865 76.7599L-159.137 76.7729L-157.405 76.7859L-155.667 76.7989L-153.924 76.8119L-152.177 76.8249L-150.423 76.8389L-148.666 76.8519L-146.903 76.8649L-145.135 76.8789L-143.363 76.8919L-141.585 76.9049L-139.803 76.9189L-138.015 76.9319L-136.222 76.9459L-134.426 76.9599L-132.623 76.9729L-130.816 76.9869L-129.003 76.9999L-127.187 77.0139L-125.365 77.0269L-123.538 77.0419L-121.707 77.0549L-119.87 77.0689L-118.028 77.0839L-116.181 77.0969L-114.33 77.1109L-112.473 77.1249L-110.612 77.1389L-108.747 77.1529L-106.876 77.1669L-105 77.1809L-103.119 77.1959L-101.233 77.2089L-99.3433 77.2239L-97.4478 77.2379L-95.5476 77.2529L-93.643 77.2669L-91.7331 77.2819L-89.8185 77.2959L-87.8984 77.3109L-85.9739 77.3249L-84.0449 77.3399L-82.1114 77.3539L-80.1722 77.3689L-78.2288 77.3829L-76.2798 77.3979L-74.3263 77.4129L-72.3683 77.4279L-70.4056 77.4419L-68.4377 77.4579L-66.4651 77.4719L-64.4882 77.4869L-62.5056 77.5019L-60.5186 77.5169L-58.527 77.5319L-56.5302 77.5469L-54.5287 77.5629L-52.5226 77.5769L-50.5121 77.5929L-48.496 77.6079L-46.4754 77.6229L-44.4504 77.6389L-42.4208 77.6539L-40.3858 77.6699L-38.3463 77.6849L-36.3022 77.6999L-34.2527 77.7159L-32.1996 77.7309L-30.1411 77.7469L-28.0779 77.7619L-26.0095 77.7769L-23.9373 77.7939L-21.8597 77.8089L-19.7776 77.8239L-17.691 77.8409L-15.5989 77.8559L-13.5032 77.8719L-11.4022 77.8879L-9.29645 77.9039L-7.18628 77.9199L-5.07068 77.9359L-2.95145 77.9519L-0.826752 77.9679L1.30246 77.9839L3.43616 77.9999L5.57443 78.0159L7.71719 78.0319L9.86542 78.0479L12.0182 78.0639L14.1754 78.0809L16.3372 78.0969L18.5035 78.1129L20.6744 78.1299L22.8499 78.1459L25.0306 78.1629L27.2161 78.1789L29.4059 78.1959L31.5994 78.2119L33.7993 78.2289L36.0027 78.2459L38.2107 78.2629L40.4232 78.2789L42.6411 78.2949L44.8628 78.3129L47.0898 78.3289L49.3213 78.3459L51.5565 78.3629L53.7971 78.3799L56.0421 78.3969L58.2918 78.4139L60.5461 78.4309L62.8047 78.4479L65.0688 78.4649L67.3366 78.4819L69.6089 78.4989L71.8867 78.5159L74.168 78.5339L76.454 78.5509L78.7452 78.5679L81.0402 78.5849L83.3406 78.6029L85.6454 78.6209L87.954 78.6379L90.2678 78.6549L92.5854 78.6729L94.9084 78.6899L97.235 78.7069L99.5671 78.7259L101.904 78.7429L104.244 78.7609L106.59 78.7779L108.939 78.7959L111.294 78.8139L113.652 78.8319L116.016 78.8499L118.383 78.8679L120.756 78.8849L123.132 78.9029L125.513 78.9209L127.9 78.9389L130.29 78.9569L132.684 78.9759L135.083 78.9939L137.487 79.0119L139.895 79.0299L142.308 79.0479L144.725 79.0659L147.146 79.0839L149.572 79.1029L152.003 79.1209L154.437 79.1389L156.876 79.1579L159.321 79.1769L161.769 79.1949L164.221 79.2139L166.678 79.2319L169.139 79.2509L171.605 79.2689L174.076 79.2879L176.55 79.3059L179.029 79.3249L181.513 79.3439L184.001 79.3619L186.492 79.3809L188.989 79.3999L191.49 79.4189L193.996 79.4379L196.505 79.4569L199.019 79.4759L201.538 79.4949L204.061 79.5139L206.589 79.5329L209.12 79.5519L211.656 79.5709L214.196 79.5909L216.741 79.6099L219.291 79.6289L221.844 79.6479L224.401 79.6669L226.963 79.6869L229.53 79.7059L232.1 79.7249L234.676 79.7449L237.255 79.7639L239.839 79.7839L242.426 79.8029L245.019 79.8229L247.616 79.8429L250.217 79.8619L252.822 79.8819L255.432 79.9019L258.045 79.9209L260.664 79.9409L263.286 79.9609L265.913 79.9809L268.544 80.0009L271.179 80.0209L273.818 80.0409L276.463 80.0609L279.111 80.0799L281.763 80.0999L281.776 78.2889L279.125 78.2689L276.476 78.2489L273.832 78.2289L271.193 78.2089L268.557 78.1889L265.926 78.1689L263.3 78.1499L260.677 78.1299L258.059 78.1109L255.445 78.0909L252.836 78.0709L250.231 78.0509L247.629 78.0319L245.033 78.0119L242.44 77.9919L239.853 77.9729L237.269 77.9529L234.689 77.9339L232.114 77.9139L229.544 77.8949L226.977 77.8759L224.415 77.8559L221.857 77.8369L219.304 77.8179L216.755 77.7979L214.21 77.7789L211.669 77.7599L209.134 77.7409L206.602 77.7219L204.075 77.7029L201.551 77.6839L199.033 77.6649L196.519 77.6459L194.009 77.6269L191.504 77.6079L189.003 77.5889L186.506 77.5699L184.014 77.5509L181.526 77.5329L179.043 77.5139L176.563 77.4949L174.089 77.4769L171.619 77.4579L169.153 77.4399L166.692 77.4199L164.235 77.4019L161.782 77.3829L159.334 77.3649L156.89 77.3459L154.451 77.3279L152.017 77.3099L149.586 77.2919L147.16 77.2729L144.739 77.2549L142.321 77.2369L139.909 77.2189L137.501 77.1999L135.097 77.1819L132.698 77.1639L130.303 77.1459L127.913 77.1279L125.527 77.1099L123.146 77.0919L120.77 77.0739L118.397 77.0559L116.029 77.0379L113.666 77.0199L111.307 77.0029L108.953 76.9849L106.603 76.9669L104.258 76.9499L101.917 76.9309L99.5807 76.9139L97.2496 76.8959L94.9221 76.8789L92.5991 76.8619L90.2814 76.8439L87.9675 76.8259L85.6591 76.8089L83.3541 76.7919L81.0546 76.7739L78.7587 76.7569L76.4683 76.7389L74.1816 76.7219L71.9002 76.7049L69.6226 76.6879L67.3503 76.6709L65.0825 76.6529L62.8192 76.6369L60.5595 76.6199L58.3055 76.6029L56.0558 76.5849L53.8106 76.5679L51.571 76.5519L49.3348 76.5349L47.1034 76.5179L44.8763 76.5009L42.6548 76.4839L40.4367 76.4679L38.2242 76.4509L36.0163 76.4339L33.8129 76.4179L31.6139 76.4009L29.4195 76.3839L27.2296 76.3679L25.0443 76.3519L22.8643 76.3349L20.688 76.3179L18.5172 76.3019L16.3509 76.2859L14.1891 76.2689L12.0317 76.2529L9.87903 76.2369L7.73172 76.2199L5.58801 76.2049L3.44974 76.1889L1.31601 76.1719L-0.813171 76.1559L-2.93784 76.1409L-5.05707 76.1239L-7.1727 76.1079L-9.28287 76.0929L-11.3885 76.0759L-13.4897 76.0609L-15.5854 76.0449L-17.6775 76.0289L-19.764 76.0129L-21.8462 75.9979L-23.9237 75.9819L-25.9958 75.9659L-28.0645 75.9509L-30.1274 75.9349L-32.186 75.9199L-34.2391 75.9039L-36.2886 75.8889L-38.3327 75.8739L-40.3723 75.8579L-42.4073 75.8429L-44.4369 75.8269L-46.4619 75.8119L-48.4825 75.7969L-50.4984 75.7809L-52.509 75.7659L-54.515 75.7509L-56.5165 75.7359L-58.5135 75.7209L-60.505 75.7059L-62.492 75.6909L-64.4737 75.6759L-66.4515 75.6609L-68.4242 75.6459L-70.3922 75.6309L-72.3546 75.6159L-74.3127 75.6019L-76.2661 75.5859L-78.2151 75.5719L-80.1588 75.5569L-82.0977 75.5429L-84.0313 75.5289L-85.9604 75.5139L-87.8849 75.4999L-89.8048 75.4849L-91.7195 75.4709L-93.6295 75.4559L-95.5341 75.4419L-97.4341 75.4269L-99.3297 75.4129L-101.22 75.3989L-103.105 75.3849L-104.986 75.3699L-106.862 75.3559L-108.733 75.3419L-110.599 75.3269L-112.46 75.3139L-114.316 75.2989L-116.168 75.2859L-118.014 75.2719L-119.855 75.2579L-121.692 75.2439L-123.524 75.2309L-125.351 75.2159L-127.173 75.2019L-128.99 75.1889L-130.802 75.1749L-132.61 75.1619L-134.412 75.1479L-136.209 75.1349L-138.001 75.1209L-139.789 75.1069L-141.571 75.0939L-143.349 75.0799L-145.121 75.0679L-146.889 75.0539L-148.652 75.0399L-150.41 75.0279L-152.163 75.0139L-153.911 74.9999L-155.653 74.9879L-157.391 74.9739L-159.124 74.9619L-160.852 74.9489L-162.575 74.9349L-164.293 74.9229L-166.006 74.9099L-167.714 74.8959L-169.417 74.8839L-171.115 74.8709L-172.807 74.8579L-174.496 74.8459L-176.178 74.8329L-177.856 74.8199L-179.529 74.8079L-181.197 74.7949L-182.86 74.7819L-184.518 74.7699L-186.17 74.7579L-187.818 74.7449L-189.461 74.7319L-191.098 74.7209L-192.731 74.7079L-194.358 74.6949L-195.981 74.6839L-197.599 74.6709L-199.211 74.6589L-200.818 74.6469L-202.421 74.6349L-204.017 74.6229L-205.609 74.6109L-207.196 74.5979L-208.778 74.5869L-210.355 74.5749L-211.926 74.5629L-213.493 74.5509L-215.054 74.5389L-216.611 74.5279L-218.163 74.5159L-219.709 74.5039L-221.249 74.4919L-222.785 74.4809L-224.317 74.4699L-225.842 74.4579L-227.362 74.4459L-228.878 74.4349L-230.388 74.4239L-231.893 74.4129L-233.393 74.4009L-234.888 74.3899L-236.378 74.3779L-237.863 74.3669L-239.342 74.3569L-240.816 74.3449L-242.285 74.3339L-243.748 74.3229L-245.207 74.3119L-246.661 74.3009L-248.109 74.2899L-249.553 74.2789L-250.99 74.2679L-252.423 74.2569L-253.851 74.2469L-255.273 74.2359L-256.69 74.2249L-258.102 74.2139L-259.509 74.2039L-260.911 74.1939L-262.307 74.1829L-263.698 74.1729L-265.084 74.1619L-266.465 74.1509L-267.84 74.1409L-269.21 74.1309L-270.575 74.1199L-271.935 74.1099L-273.289 74.0999L-274.639 74.0889L-275.983 74.0789L-277.321 74.0689L-278.654 74.0589L-279.983 74.0499L-281.306 74.0399L-282.624 74.0299L-283.936 74.0199L-285.243 74.0099L-286.544 73.9999L-287.841 73.9899L-289.133 73.9809L-290.419 73.9709L-291.699 73.9609L-292.975 73.9519L-294.244 73.9419L-295.509 73.9319L-296.768 73.9229L-298.023 73.9139L-299.272 73.9039L-300.515 73.8949L-301.753 73.8849L-302.986 73.8759L-304.213 73.8669L-305.435 73.8579L-306.652 73.8479L-307.864 73.8379L-309.07 73.8289L-310.271 73.8199L-311.466 73.8109L-312.656 73.8029L-313.841 73.7939L-315.02 73.7849L-316.194 73.7759L-317.362 73.7669L-318.526 73.7589L-319.683 73.7499L-320.836 73.7409L-321.983 73.7329L-323.125 73.7229L-324.26 73.7149L-325.392 73.7059L-326.517 73.6979L-327.637 73.6899L-328.752 73.6809L-329.861 73.6729L-330.965 73.6649L-332.064 73.6559L-333.156 73.6479L-334.244 73.6399L-335.326 73.6319L-336.403 73.6239L-337.474 73.6159L-338.54 73.6079L-339.6 73.5989L-340.655 73.5909L-341.704 73.5829L-342.749 73.5759L-343.787 73.5679L-344.82 73.5599L-345.848 73.5519L-346.87 73.5439L-347.886 73.5369L-348.898 73.5299L-349.903 73.5219L-350.904 73.5139L-351.898 73.5069L-352.888 73.4989L-353.871 73.4919L-354.85 73.4839L-355.822 73.4769L-356.79 73.4699L-357.751 73.4629L-358.708 73.4549L-359.658 73.4479L-360.603 73.4409L-361.543 73.4339L-362.477 73.4259L-363.406 73.4199L-364.329 73.4129L-365.246 73.4059L-366.158 73.3989L-367.065 73.3919L-367.966 73.3859L-368.861 73.3779L-369.751 73.3719L-370.635 73.3649L-371.514 73.3579L-372.387 73.3519L-373.254 73.3459L-374.116 73.3389L-374.973 73.3319L-375.823 73.3259L-376.669 73.3199L-377.508 73.3129L-378.342 73.3069L-379.171 73.3009L-379.993 73.2939L-380.811 73.2889L-381.622 73.2819L-382.428 73.2759L-383.229 73.2699L-384.023 73.2639L-384.812 73.2579L-385.596 73.2529L-386.374 73.2459L-387.146 73.2409L-387.913 73.2339L-388.674 73.2289L-389.429 73.2239L-390.179 73.2179L-390.923 73.2119L-391.661 73.2059L-392.394 73.2009L-393.121 73.1949L-393.842 73.1899L-394.558 73.1849L-395.268 73.1789L-395.972 73.1739L-396.671 73.1679L-397.364 73.1639L-398.051 73.1579L-398.733 73.1529L-399.409 73.1479L-400.079 73.1429L-400.744 73.1379L-401.402 73.1329L-402.056 73.1279L-402.703 73.1229L-403.345 73.1179L-403.981 73.1139L-404.611 73.1089L-405.235 73.1039L-405.854 73.0989L-406.467 73.0949L-407.074 73.0899L-407.676 73.0859L-408.272 73.0809L-408.862 73.0769L-409.446 73.0719L-410.025 73.0679L-410.598 73.0629L-411.165 73.0599L-411.726 73.0549L-412.281 73.0509L-412.831 73.0469L-413.375 73.0419L-413.913 73.0389L-414.446 73.0339L-414.972 73.0309L-415.493 73.0269L-416.008 73.0219L-416.517 73.0189L-417.021 73.0149L-417.518 73.0119L-418.01 73.0079L-418.496 73.0039L-418.976 73.0009L-419.451 72.9969L-419.919 72.9939L-420.382 72.9899L-420.839 72.9859L-421.29 72.9829L-421.735 72.9799L-422.174 72.9759L-422.608 72.9729L-423.036 72.9699L-423.457 72.9659L-423.873 72.9639L-424.283 72.9599L-424.688 72.9569L-425.086 72.9549L-425.478 72.9509L-425.865 72.9479L-426.246 72.9459L-426.62 72.9429L-426.989 72.9399L-427.352 72.9369L-427.71 72.9349L-428.061 72.9319L-428.406 72.9289L-428.746 72.9259L-429.079 72.9239L-429.407 72.9219L-429.729 72.9189L-430.044 72.9169L-430.354 72.9149L-430.658 72.9119L-430.956 72.9099L-431.248 72.9069L-431.535 72.9059L-431.815 72.9039L-432.089 72.9009L-432.357 72.8989L-432.62 72.8969L-432.876 72.8959L-433.127 72.8939L-433.371 72.8919L-433.61 72.8899L-433.842 72.8879L-434.069 72.8869L-434.289 72.8849L-434.504 72.8829L-434.713 72.8809L-434.915 72.8799L-435.112 72.8779H-435.303L-435.487 72.8759L-435.666 72.8739L-435.839 72.8729L-436.005 72.8719L-436.166 72.8699L-436.321 72.8689H-436.469L-436.612 72.8679L-436.749 72.8659L-436.879 72.8649L-437.004 72.8639L-437.122 72.8629L-437.234 72.8619H-437.341L-437.441 72.8609L-437.535 72.8599L-437.624 72.8589H-437.706H-437.782L-437.852 72.8579H-437.916L-437.974 72.8569H-438.026L-438.071 72.8559H-438.111H-438.144H-438.172L-438.193 72.8549H-438.209H-438.218ZM-438.228 316.484C-438.811 315.791 -438.809 315.79 -438.807 315.789L-438.797 315.78L-438.76 315.749L-438.751 315.741L-438.671 315.674L-438.611 315.625L-438.5 315.532L-438.374 315.428C-438.274 315.346 -438.156 315.25 -438.022 315.139C-437.5 314.712 -436.719 314.079 -435.683 313.254C-433.611 311.602 -430.515 309.185 -426.415 306.109C-418.216 299.956 -406.003 291.171 -389.932 280.632C-357.792 259.552 -310.224 231.453 -248.491 203.355C-125.026 147.159 55.1012 90.9689 281.77 90.9689V92.7799C55.4055 92.7799 -124.466 148.894 -247.741 205.003C-309.379 233.059 -356.866 261.111 -388.939 282.146C-404.975 292.664 -417.158 301.426 -425.328 307.558C-429.413 310.623 -432.495 313.031 -434.555 314.67C-435.584 315.491 -436.358 316.118 -436.874 316.54C-437.132 316.752 -437.325 316.912 -437.454 317.019C-437.506 317.061 -437.547 317.095 -437.577 317.121L-437.598 317.138L-437.633 317.168L-437.642 317.175C-437.642 317.175 -437.643 317.176 -437.687 317.125C-437.747 317.055 -437.889 316.886 -438.228 316.484ZM-438.615 214.229C-438.617 214.23 -438.618 214.231 -438.228 215.047C-437.837 215.864 -437.836 215.864 -437.834 215.863L-437.826 215.859L-437.79 215.843L-437.646 215.774C-437.517 215.713 -437.324 215.623 -437.066 215.502C-436.854 215.403 -436.599 215.286 -436.3 215.148C-436.117 215.064 -435.919 214.972 -435.704 214.874C-435.414 214.742 -435.094 214.596 -434.745 214.439C-432.685 213.506 -429.602 212.137 -425.516 210.393C-417.344 206.907 -405.159 201.924 -389.119 195.943C-357.04 183.981 -309.542 168.028 -247.889 152.073C-124.584 120.165 55.3385 88.2519 281.77 88.2519V86.4399C55.1683 86.4399 -124.908 118.377 -248.343 150.32C-310.061 166.291 -357.618 182.263 -389.752 194.246C-405.819 200.237 -418.03 205.23 -426.227 208.728C-430.326 210.476 -433.421 211.85 -435.492 212.789C-436.528 213.257 -437.308 213.617 -437.83 213.86C-437.977 213.929 -438.103 213.988 -438.209 214.038C-438.292 214.076 -438.361 214.109 -438.419 214.136L-438.567 214.206L-438.605 214.224L-438.615 214.229ZM-438.228 133.536C-438.397 132.646 -438.396 132.646 -438.393 132.646L-438.384 132.644L-438.347 132.636L-438.199 132.609C-438.068 132.585 -437.873 132.548 -437.613 132.5C-437.092 132.404 -436.314 132.261 -435.279 132.075C-433.21 131.703 -430.118 131.157 -426.023 130.464C-417.832 129.076 -405.628 127.094 -389.568 124.715C-357.449 119.959 -309.908 113.617 -248.209 107.275C-124.81 94.5929 55.2199 81.9119 281.77 81.9119V83.7229C55.2869 83.7229 -124.681 96.4009 -248.023 109.078C-309.695 115.416 -357.209 121.754 -389.303 126.507C-405.35 128.883 -417.542 130.864 -425.72 132.25C-429.81 132.943 -432.896 133.487 -434.959 133.857C-435.582 133.97 -436.111 134.066 -436.547 134.145C-436.833 134.198 -437.078 134.243 -437.283 134.281C-437.542 134.329 -437.736 134.365 -437.866 134.389L-438.011 134.417L-438.047 134.423L-438.056 134.425C-438.058 134.425 -438.059 134.426 -438.228 133.536Z" fill="url(#paint1_linear_15414_2910)"/>
<path d="M350.777 23.832H304.777C291.522 23.832 280.777 34.5772 280.777 47.832V92.832C280.777 106.087 291.522 116.832 304.777 116.832H350.777C364.032 116.832 374.777 106.087 374.777 92.832V47.832C374.777 34.5772 364.032 23.832 350.777 23.832Z" fill="#710DD2"/>
<path d="M350.777 23.832H304.777C291.522 23.832 280.777 34.5772 280.777 47.832V92.832C280.777 106.087 291.522 116.832 304.777 116.832H350.777C364.032 116.832 374.777 106.087 374.777 92.832V47.832C374.777 34.5772 364.032 23.832 350.777 23.832Z" fill="black" fill-opacity="0.2"/>
<path d="M333.631 63.024C335.095 62.512 336.671 62.234 338.313 62.234C339.922 62.234 341.469 62.501 342.909 62.994M342.909 62.994C348.41 64.875 352.361 70.04 352.361 76.116C352.361 83.783 346.071 89.999 338.313 89.999H313.73C307.911 89.999 303.194 85.337 303.194 79.587C303.194 73.837 307.911 69.175 313.73 69.175C314.428 69.175 315.111 69.242 315.771 69.37M342.909 62.994C342.127 56.058 336.175 50.665 328.948 50.665C321.19 50.665 314.9 56.881 314.9 64.548C314.9 66.243 315.208 67.868 315.771 69.37M315.771 69.37C317.159 69.64 318.449 70.178 319.583 70.928" stroke="white" stroke-width="3.6875" stroke-linecap="round"/>
</g>
<defs>
<linearGradient id="paint0_linear_15414_2910" x1="384.652" y1="-42.1807" x2="1080.58" y2="-42.1807" gradientUnits="userSpaceOnUse">
<stop offset="0.0182341" stop-color="#8331D3" stop-opacity="0.32"/>
<stop offset="0.127609" stop-color="#553876"/>
<stop offset="0.563305" stop-color="#8331D3" stop-opacity="0.65"/>
<stop offset="0.943305" stop-color="#8331D3" stop-opacity="0"/>
</linearGradient>
<linearGradient id="paint1_linear_15414_2910" x1="270.903" y1="-42.1807" x2="-425.023" y2="-42.1807" gradientUnits="userSpaceOnUse">
<stop offset="0.0182341" stop-color="#8331D3" stop-opacity="0.32"/>
<stop offset="0.127609" stop-color="#553876"/>
<stop offset="0.563305" stop-color="#8331D3" stop-opacity="0.65"/>
<stop offset="0.943305" stop-color="#8331D3" stop-opacity="0"/>
</linearGradient>
<clipPath id="clip0_15414_2910">
<rect width="656" height="124" fill="white"/>
</clipPath>
</defs>
</svg>
