<svg width="25" height="24" viewBox="0 0 25 24" fill="none" xmlns="http://www.w3.org/2000/svg">
<g id="Instagram">
<g id="Icon">
<path d="M23.1289 7.61031C23.1169 6.71055 22.9484 5.81973 22.6311 4.9777C22.3559 4.26746 21.9356 3.62243 21.397 3.08383C20.8584 2.54523 20.2133 2.1249 19.5031 1.8497C18.6719 1.53768 17.7938 1.36897 16.9061 1.35074C15.7633 1.29966 15.4009 1.2854 12.4998 1.2854C9.59873 1.2854 9.22688 1.2854 8.09234 1.35074C7.2051 1.3691 6.32739 1.53781 5.49656 1.8497C4.78621 2.12471 4.14108 2.54497 3.60246 3.0836C3.06383 3.62222 2.64357 4.26735 2.36856 4.9777C2.05592 5.80827 1.88757 6.68618 1.87079 7.57348C1.8197 8.71753 1.80426 9.07987 1.80426 11.981C1.80426 14.8821 1.80426 15.2527 1.87079 16.3884C1.88861 17.2771 2.05612 18.1538 2.36856 18.9866C2.64403 19.6967 3.0646 20.3416 3.60341 20.88C4.14222 21.4184 4.7874 21.8385 5.49775 22.1134C6.3263 22.438 7.20416 22.6188 8.09353 22.648C9.23758 22.6991 9.59992 22.7145 12.501 22.7145C15.4021 22.7145 15.774 22.7145 16.9085 22.648C17.7961 22.6305 18.6743 22.4622 19.5055 22.1502C20.2155 21.8747 20.8604 21.4543 21.3989 20.9157C21.9375 20.3772 22.3579 19.7323 22.6335 19.0222C22.9459 18.1906 23.1134 17.3139 23.1312 16.4241C23.1823 15.2812 23.1978 14.9189 23.1978 12.0166C23.1954 9.11551 23.1954 8.74723 23.1289 7.61031ZM12.4927 17.4671C9.45854 17.4671 7.00057 15.0092 7.00057 11.975C7.00057 8.94087 9.45854 6.4829 12.4927 6.4829C13.9493 6.4829 15.3462 7.06153 16.3762 8.09151C17.4062 9.12148 17.9848 10.5184 17.9848 11.975C17.9848 13.4316 17.4062 14.8286 16.3762 15.8585C15.3462 16.8885 13.9493 17.4671 12.4927 17.4671ZM18.2034 7.56042C18.0352 7.56057 17.8686 7.52755 17.7131 7.46325C17.5577 7.39895 17.4165 7.30462 17.2975 7.18567C17.1785 7.06672 17.0842 6.92547 17.0199 6.77003C16.9556 6.61458 16.9226 6.44798 16.9227 6.27975C16.9227 6.11165 16.9559 5.9452 17.0202 5.78989C17.0845 5.63459 17.1788 5.49347 17.2977 5.37461C17.4165 5.25574 17.5577 5.16145 17.713 5.09712C17.8683 5.03279 18.0347 4.99968 18.2028 4.99968C18.3709 4.99968 18.5374 5.03279 18.6927 5.09712C18.848 5.16145 18.9891 5.25574 19.108 5.37461C19.2268 5.49347 19.3211 5.63459 19.3854 5.78989C19.4498 5.9452 19.4829 6.11165 19.4829 6.27975C19.4829 6.9878 18.9103 7.56042 18.2034 7.56042Z" fill="#999EAD"/>
<path d="M12.4927 15.5426C14.463 15.5426 16.0603 13.9453 16.0603 11.975C16.0603 10.0047 14.463 8.40746 12.4927 8.40746C10.5224 8.40746 8.92513 10.0047 8.92513 11.975C8.92513 13.9453 10.5224 15.5426 12.4927 15.5426Z" fill="#999EAD"/>
</g>
</g>
</svg>
