<svg width="127" height="36" viewBox="0 0 127 36" fill="none" xmlns="http://www.w3.org/2000/svg">
<path d="M4.68 2.16C8.85386 2.16 12.2374 5.54358 12.2374 9.71745V26.8617C8.06358 26.8617 4.68 23.4782 4.68 19.3043V2.16Z" fill="#8331D3"/>
<path d="M14.1268 9.13827C18.3007 9.13827 21.6843 12.5219 21.6843 16.6957V33.84C17.5104 33.84 14.1268 30.4564 14.1268 26.2826V9.13827Z" fill="#8331D3"/>
<path d="M23.7626 33.8399C25.7669 33.8399 27.6892 33.1893 29.1065 32.0312C30.5238 30.8731 31.32 29.3023 31.32 27.6645C31.32 26.0267 30.5238 24.4559 29.1065 23.2978C27.6892 22.1397 25.7669 21.4891 23.7626 21.4891L23.7626 27.6645V33.8399Z" fill="#8331D3"/>
<path d="M48.66 15.42C48.98 14.9 49.44 14.48 50.04 14.16C50.64 13.84 51.3267 13.68 52.1 13.68C53.02 13.68 53.8533 13.9133 54.6 14.38C55.3467 14.8467 55.9333 15.5133 56.36 16.38C56.8 17.2467 57.02 18.2533 57.02 19.4C57.02 20.5467 56.8 21.56 56.36 22.44C55.9333 23.3067 55.3467 23.98 54.6 24.46C53.8533 24.9267 53.02 25.16 52.1 25.16C51.3133 25.16 50.6267 25.0067 50.04 24.7C49.4533 24.38 48.9933 23.96 48.66 23.44V25H45.24V10.2H48.66V15.42ZM53.54 19.4C53.54 18.5467 53.3 17.88 52.82 17.4C52.3533 16.9067 51.7733 16.66 51.08 16.66C50.4 16.66 49.82 16.9067 49.34 17.4C48.8733 17.8933 48.64 18.5667 48.64 19.42C48.64 20.2733 48.8733 20.9467 49.34 21.44C49.82 21.9333 50.4 22.18 51.08 22.18C51.76 22.18 52.34 21.9333 52.82 21.44C53.3 20.9333 53.54 20.2533 53.54 19.4ZM60.5342 12.68C59.9342 12.68 59.4409 12.5067 59.0542 12.16C58.6809 11.8 58.4942 11.36 58.4942 10.84C58.4942 10.3067 58.6809 9.86667 59.0542 9.52C59.4409 9.16 59.9342 8.98 60.5342 8.98C61.1209 8.98 61.6009 9.16 61.9742 9.52C62.3609 9.86667 62.5542 10.3067 62.5542 10.84C62.5542 11.36 62.3609 11.8 61.9742 12.16C61.6009 12.5067 61.1209 12.68 60.5342 12.68ZM62.2342 13.84V25H58.8142V13.84H62.2342ZM67.9127 22.18H72.7527V25H64.0927V22.28L68.7327 16.66H64.1327V13.84H72.6527V16.56L67.9127 22.18ZM73.9545 19.4C73.9545 18.2533 74.1679 17.2467 74.5945 16.38C75.0345 15.5133 75.6279 14.8467 76.3745 14.38C77.1212 13.9133 77.9545 13.68 78.8745 13.68C79.6079 13.68 80.2745 13.8333 80.8745 14.14C81.4879 14.4467 81.9679 14.86 82.3145 15.38V10.2H85.7345V25H82.3145V23.4C81.9945 23.9333 81.5345 24.36 80.9345 24.68C80.3479 25 79.6612 25.16 78.8745 25.16C77.9545 25.16 77.1212 24.9267 76.3745 24.46C75.6279 23.98 75.0345 23.3067 74.5945 22.44C74.1679 21.56 73.9545 20.5467 73.9545 19.4ZM82.3145 19.42C82.3145 18.5667 82.0745 17.8933 81.5945 17.4C81.1279 16.9067 80.5545 16.66 79.8745 16.66C79.1945 16.66 78.6145 16.9067 78.1345 17.4C77.6679 17.88 77.4345 18.5467 77.4345 19.4C77.4345 20.2533 77.6679 20.9333 78.1345 21.44C78.6145 21.9333 79.1945 22.18 79.8745 22.18C80.5545 22.18 81.1279 21.9333 81.5945 21.44C82.0745 20.9467 82.3145 20.2733 82.3145 19.42ZM89.9288 12.68C89.3288 12.68 88.8354 12.5067 88.4488 12.16C88.0754 11.8 87.8888 11.36 87.8888 10.84C87.8888 10.3067 88.0754 9.86667 88.4488 9.52C88.8354 9.16 89.3288 8.98 89.9288 8.98C90.5154 8.98 90.9954 9.16 91.3688 9.52C91.7554 9.86667 91.9488 10.3067 91.9488 10.84C91.9488 11.36 91.7554 11.8 91.3688 12.16C90.9954 12.5067 90.5154 12.68 89.9288 12.68ZM91.6288 13.84V25H88.2088V13.84H91.6288ZM100.907 13.72C102.214 13.72 103.254 14.1467 104.027 15C104.814 15.84 105.207 17 105.207 18.48V25H101.807V18.94C101.807 18.1933 101.614 17.6133 101.227 17.2C100.841 16.7867 100.321 16.58 99.6672 16.58C99.0139 16.58 98.4939 16.7867 98.1072 17.2C97.7205 17.6133 97.5272 18.1933 97.5272 18.94V25H94.1072V13.84H97.5272V15.32C97.8739 14.8267 98.3405 14.44 98.9272 14.16C99.5139 13.8667 100.174 13.72 100.907 13.72ZM116.324 22.52H111.084L110.244 25H106.664L111.744 10.96H115.704L120.784 25H117.164L116.324 22.52ZM115.444 19.88L113.704 14.74L111.984 19.88H115.444ZM125.75 10.96V25H122.33V10.96H125.75Z" fill="white"/>
</svg>
