<svg width="25" height="24" viewBox="0 0 25 24" fill="none" xmlns="http://www.w3.org/2000/svg">
<g id="Telegram" clip-path="url(#clip0_14158_19861)">
<path id="Vector" d="M12.4999 0C5.87594 0 0.499939 5.376 0.499939 12C0.499939 18.624 5.87594 24 12.4999 24C19.1239 24 24.4999 18.624 24.4999 12C24.4999 5.376 19.1239 0 12.4999 0ZM18.0679 8.16C17.8879 10.056 17.1079 14.664 16.7119 16.788C16.5439 17.688 16.2079 17.988 15.8959 18.024C15.1999 18.084 14.6719 17.568 13.9999 17.124C12.9439 16.428 12.3439 15.996 11.3239 15.324C10.1359 14.544 10.9039 14.112 11.5879 13.416C11.7679 13.236 14.8399 10.44 14.8999 10.188C14.9083 10.1498 14.9072 10.1102 14.8967 10.0726C14.8863 10.0349 14.8668 10.0004 14.8399 9.972C14.7679 9.912 14.6719 9.936 14.5879 9.948C14.4799 9.972 12.7999 11.088 9.52394 13.296C9.04394 13.62 8.61194 13.788 8.22794 13.776C7.79594 13.764 6.97994 13.536 6.36794 13.332C5.61194 13.092 5.02394 12.96 5.07194 12.54C5.09594 12.324 5.39594 12.108 5.95994 11.88C9.46394 10.356 11.7919 9.348 12.9559 8.868C16.2919 7.476 16.9759 7.236 17.4319 7.236C17.5279 7.236 17.7559 7.26 17.8999 7.38C18.0199 7.476 18.0559 7.608 18.0679 7.704C18.0559 7.776 18.0799 7.992 18.0679 8.16Z" fill="#999EAD"/>
</g>
<defs>
<clipPath id="clip0_14158_19861">
<rect width="24" height="24" fill="white" transform="translate(0.5)"/>
</clipPath>
</defs>
</svg>
